<svg xmlns="http://www.w3.org/2000/svg" xmlns:xlink="http://www.w3.org/1999/xlink" width="200" height="136.162" viewBox="0 0 200 136.162"><defs><style>.a{fill:#0f377f;}.b{fill:url(#a);}.c{fill:#fff;}</style><linearGradient id="a" x1="0.5" y1="1" x2="0.5" gradientUnits="objectBoundingBox"><stop offset="0.1" stop-color="#ef7c00"/><stop offset="0.11" stop-color="#ef7e00"/><stop offset="0.25" stop-color="#f6aa00"/><stop offset="0.37" stop-color="#faca00"/><stop offset="0.47" stop-color="#fdde00"/><stop offset="0.54" stop-color="#ffe500"/></linearGradient></defs><g transform="translate(0 85.642)"><path class="a" d="M4.349,289.708H0V266.73H4.349ZM9.764,278.08l7.727,11.628h-5L4.968,278.08l7.108-11.35h4.932L9.761,278.08Z" transform="translate(0 -266.382)"/><path class="a" d="M77.118,289.708l-5.28-7.592H67.7v7.592H63.35V266.73h9.419c5.348,0,7.314,2.173,7.314,6.209v3c0,2.759-1.035,4.694-3.449,5.554l5.693,8.211H77.118ZM72.6,270.56H67.7v7.8h4.9c2.379,0,3.14-.864,3.14-2.795v-2.276C75.738,271.356,74.91,270.56,72.6,270.56Z" transform="translate(-42.928 -266.382)"/><path class="a" d="M130.78,266.73h14.078v3.83h-9.729v5.554H144.1v3.83h-8.971v5.935h9.729v3.83H130.78V266.73Z" transform="translate(-88.621 -266.382)"/><path class="a" d="M191.1,289.708H186.75V266.73H191.1Z" transform="translate(-126.549 -266.382)"/><path class="a" d="M218.976,289.335a19.331,19.331,0,0,1-7.176-1.38l.758-3.417a21.7,21.7,0,0,0,6.486,1.07c3.14,0,3.656-.654,3.656-2.863,0-2.553-.068-2.759-4.21-3.656-5.554-1.241-6.315-2.311-6.315-7.176,0-4.175,1.9-6.244,7.727-6.244a31.438,31.438,0,0,1,6.692.758l-.484,3.656a30.047,30.047,0,0,0-6.141-.69c-2.933,0-3.449.622-3.449,2.621,0,2.621.068,2.692,4.036,3.656,6.176,1.483,6.486,2.485,6.486,7.073,0,4.345-1.277,6.589-8.072,6.589Z" transform="translate(-143.524 -265.664)"/><path class="a" d="M268.74,272.32c0-4.21,2.45-6.66,8.178-6.66a26.149,26.149,0,0,1,6.244.758l-.484,3.759a33.889,33.889,0,0,0-5.625-.587c-3,0-3.968,1.035-3.968,3.485v8.833c0,2.45.967,3.485,3.968,3.485a33.926,33.926,0,0,0,5.625-.587l.484,3.762a26.007,26.007,0,0,1-6.244.758c-5.728,0-8.178-2.45-8.178-6.66V272.314Z" transform="translate(-182.108 -265.657)"/><path class="a" d="M337.049,289.708v-9.693h-8.523v9.693H324.18V266.73h4.345v9.452h8.523V266.73h4.345v22.978Z" transform="translate(-219.677 -266.382)"/><path class="a" d="M391.493,289.708V266.73h9.039c4.345,0,6.106,1.792,6.106,4.9v2.379a3.639,3.639,0,0,1-2.553,3.727,4.04,4.04,0,0,1,3.346,4.242v2.45c0,3.243-2.105,5.277-6.28,5.277H391.49Zm10.8-17.527c0-1.277-.69-1.863-2.276-1.863h-4.175v6.038h4.139c1.689,0,2.311-.793,2.311-2.14Zm.793,9.971c0-1.554-.69-2.311-2.414-2.311h-4.829v6.28h4.452c1.966,0,2.795-.551,2.795-2.244v-1.725Z" transform="translate(-265.288 -266.382)"/><path class="a" d="M451.11,266.73h14.078v3.83h-9.729v5.554h8.971v3.83h-8.971v5.935h9.729v3.83H451.11V266.73Z" transform="translate(-305.689 -266.382)"/><path class="a" d="M520.322,289.708l-5.277-7.592h-4.139v7.592H506.56V266.73h9.419c5.348,0,7.314,2.173,7.314,6.209v3c0,2.759-1.035,4.694-3.449,5.554l5.693,8.211h-5.209ZM515.8,270.56h-4.9v7.8h4.9c2.379,0,3.14-.864,3.14-2.795v-2.276C518.942,271.356,518.113,270.56,515.8,270.56Z" transform="translate(-343.264 -266.382)"/><path class="a" d="M575.109,281.868c0,2.244.967,3.552,4,3.552a24.414,24.414,0,0,0,3.552-.277v-6.969h4.107v10.109a29.5,29.5,0,0,1-7.695,1.035c-5.625,0-8.314-2.379-8.314-6.934v-9.8c0-4.726,2.759-6.934,8.73-6.934a28.054,28.054,0,0,1,6.589.758L585.6,270.2a30.577,30.577,0,0,0-6.451-.622c-3.037,0-4.036,1.241-4.036,3.588v8.694Z" transform="translate(-386.769 -265.65)"/><g transform="translate(162.899 28.664)"><path class="a" d="M510.275,361.352h-1.87l-1.438-4.033-.129,5.039H505.33l.351-7.788h1.647l2.012,5.532,2.012-5.532H513l.351,7.788h-1.509l-.129-5.039Z" transform="translate(-505.33 -354.57)"/><path class="a" d="M540.141,354.58v5.532c0,1.228-.69,2.373-2.875,2.373s-2.875-1.144-2.875-2.373V354.58h1.473v5.412c0,.761.361,1.193,1.4,1.193s1.4-.432,1.4-1.193V354.58Z" transform="translate(-525.022 -354.577)"/><path class="a" d="M561.435,362.358l-1.789-2.572h-1.4v2.572H556.77V354.57h3.191c1.812,0,2.479.738,2.479,2.105v1.019a1.776,1.776,0,0,1-1.17,1.883l1.928,2.782h-1.767Zm-1.531-6.489h-1.66v2.643h1.66c.806,0,1.064-.293,1.064-.948v-.77C560.967,356.14,560.687,355.869,559.9,355.869Z" transform="translate(-540.188 -354.57)"/><path class="a" d="M583.092,360.746H580.2l-.49,1.612H578.17l2.456-7.788h2.057l2.456,7.788H583.6Zm-2.524-1.273h2.15l-1.064-3.681Z" transform="translate(-554.689 -354.57)"/><path class="a" d="M607.731,354.58v5.532c0,1.228-.69,2.373-2.875,2.373s-2.875-1.144-2.875-2.373V354.58h1.473v5.412c0,.761.361,1.193,1.4,1.193s1.4-.432,1.4-1.193V354.58Z" transform="translate(-570.824 -354.577)"/></g></g><g transform="translate(60.607)"><path class="b" d="M227.545,54.491a25.577,25.577,0,0,0-20.27,41.179l5.944-1.783,6.94,3.9,6.579-10.528,7.3,10.664,8.707-4.22,5.245,1.741a25.585,25.585,0,0,0-20.447-40.956Zm6.028-1.444L228,29.05l-5.683,23.819a25.558,25.558,0,0,1,5.5-.529,25.3,25.3,0,0,1,5.761.709Zm-11.589-.268-8.214-6.293-1.441,10.245A40.751,40.751,0,0,1,217,54.465c2.2-.848,4.987-1.683,4.987-1.683Zm-13.578,7.179a40.463,40.463,0,0,1,3.881-3.072L203.561,54.2l1.953,8.913a37.04,37.04,0,0,1,2.895-3.156Zm-5.225,6.734a38.413,38.413,0,0,1,2.282-3.365L188.01,57.037,201.54,70.27s.951-2.331,1.644-3.578Zm46.826-3.066A25.825,25.825,0,0,1,252,66.96c1,1.979,1.683,3.72,1.683,3.72l12.73-12.45Zm5.271,13.7,4.942-4.507-6.389-1.979s.3,1.347.738,3.211.706,3.275.706,3.275Zm-12.227-20.2-1.035-10.4-8.3,6.164s2.331.719,4.819,1.667A19.169,19.169,0,0,1,243.05,57.125Zm6.824,6.38,2.189-8.946-8.755,2.569s1.879,1.412,3.372,2.834A44.152,44.152,0,0,1,249.875,63.5Zm3.069,27.888a10.05,10.05,0,0,1-.767,1.534l3.7-.38-2.282-2.9s-.358.974-.654,1.747Zm1.625-4.671a16.609,16.609,0,0,1-.8,2.482l5.412-1.406-4.175-3.733s-.174,1.505-.442,2.656Zm.709-5.848a25.89,25.89,0,0,1-.177,2.837l11.312-2.45-11.131-3.569s-.026,2.028,0,3.185ZM201.365,89.38l-2.2,2.917,3.614.48s-.313-.738-.677-1.625-.741-1.773-.741-1.773Zm-.845-15.332c.277-1.325,1.009-3.523,1.009-3.523l-6.418,1.908,4.816,4.648s.313-1.712.59-3.037Zm-.712,6.647c-.045-1.238.132-3.372.132-3.372L188.6,79.87l11.337,3.591S199.86,81.94,199.808,80.7Zm.8,6.025c-.274-1.08-.606-2.953-.606-2.953l-4.01,3.733,5.219,1.657S200.882,87.8,200.608,86.721Z" transform="translate(-188.01 -19.679)"/><g transform="translate(18.658)"><path class="a" d="M257.8.686l.177,49.089,13.069-21.73a14.3,14.3,0,0,0,.09-11.115c-.184-.409.09-.819.361-1.138a1.534,1.534,0,0,1,1.631-.406c2.141.951,3.859,3.266,5.222,5.167a13.876,13.876,0,0,1,1.908,13.069c-2.408,4.491-5.222,8.849-7.85,13.246l17.037,25.273-14.951.048-.409-.364L265.6,58.85l-.045-.045c-2.766,4.4-5.216,8.936-7.895,13.384l-11.773-.048.023-57.126c.5-6.257,4.581-12.521,10.525-15.016A1.2,1.2,0,0,1,257.8.68Z" transform="translate(-245.89 0.019)"/><path class="c" d="M258.22,61.61l16.831-27.917a16.973,16.973,0,0,0,.78-10.312c3.559,3.511,6.544,7.846,5.116,13.085l-.954,2.344-7.369,12.3,14.822,22.275h-11.26L267.4,59.817c-2.817,4.719-5.38,8.755-8.153,13.568h-8.672l.023-48.844c-.345-5.332.712-10.4,4.049-14.258a10.486,10.486,0,0,1,3.575-2.743V61.61Z" transform="translate(-249.039 -5.103)"/></g></g><g transform="translate(32.046 115.696)"><path class="c" d="M101.312,410.46l.168.084.38-.042c.226,0,.338.213.338.635a3.914,3.914,0,0,1-1.438,2.366l-.593.255h-.21A.675.675,0,0,1,99.41,413a2.721,2.721,0,0,1,1.563-2.453l.338-.084Z" transform="translate(-99.41 -393.832)"/><path class="c" d="M125.2,410.46l.168.084.38-.042c.226,0,.338.213.338.635a3.914,3.914,0,0,1-1.438,2.366l-.593.255h-.21A.675.675,0,0,1,123.3,413a2.721,2.721,0,0,1,1.563-2.453l.338-.084Z" transform="translate(-115.599 -393.832)"/><path class="c" d="M149.092,410.46l.168.084.38-.042c.226,0,.338.213.338.635a3.914,3.914,0,0,1-1.438,2.366l-.593.255h-.21a.675.675,0,0,1-.548-.761,2.721,2.721,0,0,1,1.563-2.453l.338-.084Z" transform="translate(-131.788 -393.832)"/><path class="c" d="M178.939,387.82c.451,0,.677.255.677.761v.094q0,2.07-2.153,5.883a11.581,11.581,0,0,1-1.837,2.472,3.5,3.5,0,0,1-1.805.858h-.358q-1.48-.614-1.48-1.351h-.042a2.567,2.567,0,0,1-1.489.9h-.487q-.783,0-1.354-1.657a7.04,7.04,0,0,1-.181-1.531q.116-4.057.455-4.171c.393-.542.735-.816,1.025-.816h.232c.055.016.116.09.181.232a29.464,29.464,0,0,0-.274,3.772c.119,1.551.48,2.4,1.077,2.556a3.152,3.152,0,0,0,.593-1.837q.653-1.122,1.341-1.122h.139l.181.181v.18l-.093.719v.126a3.386,3.386,0,0,0,.5,1.67,2.11,2.11,0,0,0,.951.538h.042c.332,0,.777-.538,1.341-1.615A11.836,11.836,0,0,0,178,389.8v-.264c-.042,0-.071-.21-.084-.632q0-.6.9-1.077h.126Z" transform="translate(-146.181 -378.491)"/><path class="c" d="M216.964,389.33a1.837,1.837,0,0,1,1.85,1.322,4.862,4.862,0,0,1,.274,1.235v.612a6.147,6.147,0,0,1-1.744,3.549q-2.326,2.887-4.449,2.885-1.533,0-2.176-1.85a4.2,4.2,0,0,1-.19-1.086,7.429,7.429,0,0,1,2.788-5.577,3.832,3.832,0,0,1,1.657-.709c0-.113.377-.239,1.131-.38h.854Zm-4.732,5.483q.266,2.365,1.8,2.366a2.5,2.5,0,0,0,1.805-.938,4.92,4.92,0,0,0,1.551-2.747v-.326a3.58,3.58,0,0,0-.561-1.7h-.052a1.149,1.149,0,0,1-.613.232l-.993-.477q-1.847.266-1.847.664a4.631,4.631,0,0,0-1.09,2.927Z" transform="translate(-174.709 -379.514)"/><path class="c" d="M277.81,388.626a4.209,4.209,0,0,1,2,.645l.074.464q0,.571-1.109,1.035h-.116l-1.025-.432-.77-.106c-.38.1-.571.264-.571.5v.042a4.563,4.563,0,0,0,1.712,1q3.3,1.049,3.962,1.86a2.41,2.41,0,0,1,.287,1v.139a3.212,3.212,0,0,1-.783,1.615,6.753,6.753,0,0,1-2.366,1.976,3.965,3.965,0,0,1-1.754.316,4.361,4.361,0,0,1-2.324-.845,3.29,3.29,0,0,1-.284-.845v-.032c0-.326.284-.648.854-.974l.242-.064h.2a3.725,3.725,0,0,0,2.005,1.035l.329.032a3.315,3.315,0,0,0,2.2-.9l.213-.635a.773.773,0,0,0-.58-.687,11.526,11.526,0,0,0-2.937-1.289q-2.737-.972-2.524-1.963a5.432,5.432,0,0,1,1.28-2.144,3.542,3.542,0,0,1,1.8-.751Z" transform="translate(-218.208 -379.033)"/><path class="c" d="M317.074,389.33a1.84,1.84,0,0,1,1.85,1.322,5.012,5.012,0,0,1,.274,1.235v.612a6.147,6.147,0,0,1-1.744,3.549q-2.326,2.887-4.449,2.885-1.533,0-2.176-1.85a4.2,4.2,0,0,1-.19-1.086,7.429,7.429,0,0,1,2.788-5.577,3.832,3.832,0,0,1,1.657-.709c0-.113.377-.239,1.132-.38h.854Zm-4.732,5.483q.266,2.365,1.8,2.366a2.5,2.5,0,0,0,1.805-.938,4.931,4.931,0,0,0,1.554-2.747v-.326a3.58,3.58,0,0,0-.561-1.7h-.052a1.149,1.149,0,0,1-.612.232l-.993-.477q-1.847.266-1.847.664a4.631,4.631,0,0,0-1.09,2.927Z" transform="translate(-242.547 -379.514)"/><path class="c" d="M350.462,388.533h.116c.155,0,.287.364.4,1.09a25.257,25.257,0,0,1-.4,4.352q3.4-4.478,5.461-4.478,1.054,0,1.322,1.267a30.98,30.98,0,0,1,.571,4.942,2.529,2.529,0,0,0,.474.854l.064.18c-.4,1.07-.957,1.605-1.67,1.605q-1.267,0-1.109-3.275-.266-3.443-.867-3.443h-.168q-.9.169-2.811,2.863a20.768,20.768,0,0,0-1.383,2.418c-.709.986-1.325,1.48-1.837,1.48a.4.4,0,0,1-.454-.455v-.625a39.318,39.318,0,0,0,.751-6.254l-.181-.919q.667-1.605,1.721-1.605Z" transform="translate(-267.979 -378.972)"/><path class="c" d="M392.543,388.626a4.23,4.23,0,0,1,2,.645l.074.464q0,.571-1.109,1.035h-.116l-1.025-.432-.77-.106c-.38.1-.571.264-.571.5v.042a4.563,4.563,0,0,0,1.712,1q3.3,1.049,3.962,1.86a2.409,2.409,0,0,1,.287,1v.139a3.212,3.212,0,0,1-.783,1.615,6.782,6.782,0,0,1-2.366,1.976,3.965,3.965,0,0,1-1.754.316,4.361,4.361,0,0,1-2.324-.845,3.288,3.288,0,0,1-.284-.845v-.032c0-.326.284-.648.854-.974l.242-.064h.2a3.723,3.723,0,0,0,2.008,1.035l.329.032a3.315,3.315,0,0,0,2.2-.9l.213-.635a.777.777,0,0,0-.58-.687A11.525,11.525,0,0,0,392,393.478q-2.737-.972-2.524-1.963a5.454,5.454,0,0,1,1.277-2.144,3.542,3.542,0,0,1,1.8-.751Z" transform="translate(-295.961 -379.033)"/><path class="c" d="M416.9,358.88h.213c.142.035.213.206.213.519q-.421,2.863-.835,4.532a41.413,41.413,0,0,1,6.625-1.086c.632,0,1.032.135,1.193.409v.161c0,.59-.484,1.061-1.351,1.405H422.9l-.9-.213a21.71,21.71,0,0,0-5.938,1.1,61.566,61.566,0,0,0-1.667,8.536v.477a3.528,3.528,0,0,0,.422,1.973l.052.161q-.624,1.456-1.563,1.457h-.158q-.624-.339-.622-2.344v-.729a59.472,59.472,0,0,1,1.828-9.065l-7.447,2.5a.327.327,0,0,1-.371-.367c0-.509.49-1.009,1.47-1.512l6.76-2.334.887-4.636q.749-.943,1.248-.941Z" transform="translate(-307.533 -358.88)"/><path class="c" d="M459.56,374.993c.171,0,.319.293.442.877a20.142,20.142,0,0,0,1.154,2.8l.032.19c0,.213-.258.435-.774.677l-.19.032c-.374,0-.645-.3-.812-.9a14.856,14.856,0,0,1-.932-2.7v-.032c0-.338.309-.638.932-.9l.148-.042Zm2.863-15.783q.213,0,.338.8a18.437,18.437,0,0,1-1.447,5.293,35.325,35.325,0,0,0-1.3,4.9l-.077.487a6.117,6.117,0,0,0,.445,1.837v.032c-.084.641-.28.961-.593.961-.542-.171-.812-.332-.812-.487-.168-.126-.3-.683-.38-1.67q0-1.48,2.6-9.126a10.28,10.28,0,0,0,.222-1.46l-.148-.612c0-.351.348-.67,1.048-.961h.1Z" transform="translate(-342.729 -359.104)"/></g></svg>